<svg id="Layer_1" data-name="Layer 1" xmlns="http://www.w3.org/2000/svg" viewBox="0 0 400 300" width="406" height="306" class="illustration styles_illustrationTablet__1DWOa"><path d="M115.46 232.67s-1.8 4 .63 6.76.61 6.07-2.43 4.43-6.2-10.69-6.2-10.69l4.67-5Z" fill="#067bb6"/><path d="M115.46 232.67s-1.8 4 .63 6.76.61 6.07-2.43 4.43-6.2-10.69-6.2-10.69l4.67-5Z" opacity=".09"/><path fill="#e6e6e6" d="M126.81 36.83h176.4v174.72h-176.4z"/><circle cx="140.7" cy="50.22" r="4.42" fill="#ffd200"/><circle cx="153.15" cy="50.22" r="4.42" fill="#067bb6"/><circle cx="165.07" cy="50.22" r="4.42" fill="#24285b"/><path fill="#fff" d="M233.8 45.8h50.57v10.21H233.8z"/><path d="M209.5 85.93s14.92 18.71 4.34 37.47-34.52 15.54-34.52 15.54l-17.86 43.9a4.52 4.52 0 0 1-6 2.45l-4.58-1.94a1.75 1.75 0 0 0-2.1 2.64 15.53 15.53 0 0 1 1.22 16.36l-4.87 9.19h-18.32v-68.19l18.29 20.07 19.95-39.23s24.08 7.11 32.9-4.36 11.55-33.9 11.55-33.9Z" opacity=".09"/><path d="M112.79 117.17s16.27 5.07 19.11 20.55 14 17.56 24.22 18l-1.06 6.53s-33.59 11.28-39.06-13.8c-5.9-26.59-3.21-31.28-3.21-31.28Z" fill="#f4a28c"/><path d="M112.79 117.17s16.27 5.07 19.11 20.55 14 17.56 24.22 18l-1.06 6.53s-33.59 11.28-39.06-13.8c-5.9-26.59-3.21-31.28-3.21-31.28Z" opacity=".09"/><path d="M109.08 115.43s22 4.25 25.67 29.39c0 0-1.88 7.19-12.84 10.43s-12.83-39.82-12.83-39.82Z" fill="#067bb6"/><path d="M109.08 115.43s22 4.25 25.67 29.39c0 0-1.88 7.19-12.84 10.43s-12.83-39.82-12.83-39.82Z" fill="#fff" opacity=".44"/><path d="M86.17 115s-27.41 6.78-21 29.72A258 258 0 0 0 80 184.83l34.27-2.35s34.15-79.78-28.1-67.48Z" fill="#067bb6"/><path fill="#f4a28c" d="M90.38 91.62 86.17 115l13.92 8.4-3.05-24.58-6.66-7.2z"/><path d="M97.68 102.65a8.58 8.58 0 0 1-4.19-2.65s.1 4.35 4.78 8.74Z" fill="#ce8172" opacity=".31"/><path d="M101 89.9s1.47 7.11.82 12a3.64 3.64 0 0 1-4.14 3.1c-2.47-.36-5.7-1.57-7-5.28l-2.89-6a6.5 6.5 0 0 1 2-7.24c3.81-3.39 10.51-.95 11.21 3.42Z" fill="#f4a28c"/><path d="M66.22 148.45S69.8 160.06 72.1 166c0 0 17.79 15.45 42.14 16.44 0 0 2.63-6.64 4-11.13s-52.02-22.86-52.02-22.86Z" opacity=".09"/><path d="M112.51 183s25-6.6 30.89 3.59-8.94 33.31-28.56 46.25l-4.84-6.67s15.43-11.76 15.43-26.66c0 0-21.64.09-22.82-7.84s9.9-8.67 9.9-8.67Z" fill="#24285b"/><path d="M112.51 183s25-6.6 30.89 3.59-8.94 33.31-28.56 46.25l-4.84-6.67s15.43-11.76 15.43-26.66c0 0-21.64.09-22.82-7.84s9.9-8.67 9.9-8.67Z" opacity=".09"/><path d="M101.66 94.43 104 97a1.17 1.17 0 0 1-.51 1.9l-2.7.84Z" fill="#f4a28c"/><path d="m88.1 101.23-2.52-9.53s-5.5-.94-3.85-4.54 3.85-1.2 3.93-5.33 3.42-5 5.8-2.65 1.27-.92 4.23-1.36 3.75.88 3.82 3.13 4.34-.16 5.44 2.69 1.27 5.6-6.1 6.07-2.08 6.54-10.75 11.52Z" fill="#ffd200"/><path d="M94 97s-.38-2.76-2.43-2.3-1.54 4.45 1.34 4.5Z" fill="#f4a28c"/><path transform="rotate(23.59 163.958 131.559)" fill="#067bb6" d="M158.6 120.45h10.79v22.29H158.6z"/><path d="M192.19 67.53a32.15 32.15 0 1 0 16.6 42.33 32.15 32.15 0 0 0-16.6-42.33Zm-22.54 51.62a24.18 24.18 0 1 1 31.83-12.48 24.18 24.18 0 0 1-31.83 12.48Z" fill="#24285b"/><rect x="145.52" y="134.35" width="17.97" height="37.96" rx="4.72" transform="rotate(23.59 154.475 153.28)" fill="#24285b"/><path d="M150.79 151s9.14-1.3 8.1 5.75-9.73 0-9.73 0-15.15 12.7-30.91 14.57-63.17-16.56-52.2-41.64c8.08-18.46 39.16 28.62 53.2 26s31.54-4.68 31.54-4.68ZM162.7 157s6.29-4.29 2.46-8.58-5.27 4.25-2.46 8.58Z" fill="#f4a28c"/><path d="M68.85 125.41s13.61-6.17 35.45 20.68l-15.79 20.58s-38.92-17.07-19.66-41.26Z" fill="#067bb6"/><path d="M68.85 125.41s13.61-6.17 35.45 20.68l-15.79 20.58s-38.92-17.07-19.66-41.26Z" fill="#fff" opacity=".44"/><path fill="#24285b" d="M231.78 72.53h89.95v123.54h-89.95z"/><path d="M183.06 89.44a3.66 3.66 0 0 0-7.31-.1 7.13 7.13 0 0 0-3.55 6.16v4.35a7.13 7.13 0 0 0 7.12 7.13 7.13 7.13 0 0 0 7.13-7.13V95.5a7.12 7.12 0 0 0-3.39-6.06Z" fill="#999"/><path fill="none" stroke="#999" stroke-linejoin="round" stroke-width="2" d="m167.88 88.38.59 4.9 7.25 1.27M167.88 108.34l.59-4.9 7.25-1.27M173.64 98.37h-10.09M190.47 88.38l-.59 4.9-7.25 1.27M190.47 108.34l-.59-4.9-7.25-1.27M184.71 98.37h10.1"/><path opacity=".09" d="M248.53 110.03h56.74v35.86h-56.74z"/><path fill="#e6e6e6" opacity=".32" d="M265.58 85.43h31.75v8.24h-31.75z"/><path fill="#fff" opacity=".11" d="M267.46 178.43h18.88v4.9h-18.88z"/><circle cx="248.53" cy="89.55" r="8.82" fill="#ffd200"/><path fill="#fff" d="M246.18 157.03h62.91v12.77h-62.91z"/><path fill="#067bb6" d="M246.18 157.03h47.62v12.77h-47.62z"/><path d="M80 184.83s6.26 15.74 20.82 18.49 43.18 32.92 42 50.17h10.35s-.45-40.2-41.45-65.75l2.54-5.26Z" fill="#24285b"/><text transform="translate(255.89 134.72)" font-size="20.35" fill="#fff" font-family="Poppins-Bold, Poppins" font-weight="700">80%</text><path d="M151.37 253.89s1.83 3.94 5.54 3.92 5 3.5 1.77 4.73-12.14-2.25-12.14-2.25l-.76-6.8Z" fill="#067bb6"/><path fill="#999" opacity=".38" d="M184.26 148.45h36.83v47.62h-36.83z"/></svg>