<svg id="Layer_1" data-name="Layer 1" xmlns="http://www.w3.org/2000/svg" viewBox="0 0 400 300" width="406" height="306"
     class="illustration styles_illustrationTablet__1DWOa">
    <ellipse cx="125.32" cy="259.82" rx="77.18" ry="14.46" fill="#e6e6e6" opacity="0.45"></ellipse>
    <rect x="85.81" y="37.99" width="228.86" height="161.45" fill="#e6e6e6"></rect>
    <path d="M223.48,131.06s17.52,28.27-5.81,43.27-43.67,4.54-53.84,25.1l-40.57-1.17L85.81,122.34s22.72-3.52,29,20.73,35.61,31.26,35.61,31.26l19.81-15.2,17.29,5.54,19.45-5.54L219,141.47Z"
          opacity="0.08"></path>
    <circle cx="104.27" cy="52.47" r="4.4" fill="#24285b"></circle>
    <circle cx="117.36" cy="52.47" r="4.4" fill="#68e1fd"></circle>
    <circle cx="129.7" cy="52.47" r="4.4" fill="#ffd200"></circle>
    <path d="M98.74,255.77s.24,2.85,2.54,3.67,2.29,3.29,0,3.32-7-4.13-7-4.13l1.35-4.25Z" fill="#68e1fd"></path>
    <path d="M164.59,229.29s2.62,1.15,4.44-.47,4-.46,2.93,1.56-7,4.17-7,4.17l-3.09-3.21Z" fill="#68e1fd"></path>
    <path d="M72.12,195.59s.67,12.88,24.35,9.6c7.28-1,13.13-1.55,17.74-1.81a31.25,31.25,0,0,1,23.28,8.55l23.14,21.92,5.7-5.91-24.67-28.6a35.3,35.3,0,0,0-24.56-12.19l-11.22-.69Z"
          fill="#24285b"></path>
    <path d="M79.41,198.5l15.88,14.81a21.22,21.22,0,0,1,5.33,23.14l-6.77,17.63,6.83,2.62,11-21.06a27.17,27.17,0,0,0-.85-26.64l-10.15-16.75Z"
          fill="#24285b"></path>
    <path d="M65.12,147c-7.86-10-1-25,11.78-25.18h.92c14.92.41,29.47,57,70,69l-2.68,7.39S106.61,199.9,65.12,147Z"
          fill="#68e1fd"></path>
    <path d="M65.12,147c-7.86-10-1-25,11.78-25.18h.92c14.92.41,29.47,57,70,69l-2.68,7.39S106.61,199.9,65.12,147Z"
          opacity="0.08"></path>
    <circle cx="187.47" cy="135.52" r="26.84" fill="#fff" opacity="0.53"></circle>
    <rect x="111.5" y="179.22" width="69.2" height="9.7" transform="translate(-88.76 175.84) rotate(-49.55)"
          fill="#ffd200"></rect>
    <rect x="111.5" y="179.22" width="69.2" height="9.7" transform="translate(-88.76 175.84) rotate(-49.55)"
          opacity="0.08"></rect>
    <rect x="130.98" y="164.69" width="16.48" height="55.1" transform="translate(157.99 -44.37) rotate(40.45)"
          fill="#24285b"></rect>
    <path d="M165.45,161.47a35.32,35.32,0,1,1,49.79-4A35.36,35.36,0,0,1,165.45,161.47Zm38.84-45.55a24.54,24.54,0,1,0,2.75,34.6A24.57,24.57,0,0,0,204.29,115.92Z"
          fill="#ffd200"></path>
    <path d="M55,104.93a30.46,30.46,0,0,1,2.91,7.64,2.47,2.47,0,0,1-2,2.84,5.46,5.46,0,0,1-5.55-2L47.23,110a4.41,4.41,0,0,1-.11-5.1C48.86,102,53.69,102.23,55,104.93Z"
          fill="#f4a28c"></path>
    <polygon points="48.49 112.57 54.32 127.61 62.37 123.8 54.9 114.39 48.49 112.57" fill="#f4a28c"></polygon>
    <path d="M54,105.61a20.24,20.24,0,0,1-4.3,1.5,4.09,4.09,0,0,1,1.81,4.12,3.34,3.34,0,0,1-3.16,2.84l-2.46-5.82a5,5,0,0,1,.53-5.11,18,18,0,0,1,1.52-1.79c1.37-1.4,4.3-1.36,5.3-3.14a1.19,1.19,0,0,1,2,0c1,1.65,1.93,4.55,0,6.56A4.56,4.56,0,0,1,54,105.61Z"
          fill="#24285b"></path>
    <path d="M51.89,110.89s-.79-1.72-2-1-.12,3.2,1.76,2.66Z" fill="#f4a28c"></path>
    <path d="M56.34,107.73l2,1.18a.79.79,0,0,1,0,1.33l-1.58,1.08Z" fill="#f4a28c"></path>
    <path d="M55.71,115.43a19.13,19.13,0,0,1-3.61-.07,7.49,7.49,0,0,0,6.23,3.35Z" fill="#ce8172" opacity="0.31"></path>
    <path d="M54.32,127.61l1.57-1.22a30.4,30.4,0,0,1,23.72-6.14,24.58,24.58,0,0,1,15.24,8.85c12.26,15.12,11,57.36,11,57.36l-33.76,9.13s-2.05-8.84-13.38-21.94C42.68,155.08,46.37,139.41,54.32,127.61Z"
          fill="#68e1fd"></path>
    <path d="M58.74,141.47S64.82,170.86,85.35,192l13.74-3.72Z" opacity="0.08"></path>
    <path d="M59.65,143.31c-6.39-11,2.53-24.89,15.17-23.3l.91.14c14.72,2.48,21.26,60.52,59.67,78.09l-3.67,6.95S93.38,201.47,59.65,143.31Z"
          fill="#68e1fd"></path>
    <path d="M59.65,143.31c-6.39-11,2.53-24.89,15.17-23.3l.91.14c14.72,2.48,21.26,60.52,59.67,78.09l-3.67,6.95S93.38,201.47,59.65,143.31Z"
          fill="#fff" opacity="0.46"></path>
    <path d="M132.94,202.9s6,2.21,9.58-1.36a2.28,2.28,0,0,0-1.87-3.88l-5.25.58Z" fill="#f4a28c"></path>
    <path d="M144.15,199.17s6.79-1,6.18-5S143.89,191.58,144.15,199.17Z" fill="#f4a28c"></path>
    <circle cx="267" cy="94.29" r="27.5" fill="#fff"></circle>
    <path d="M267,66.8V94.29l26.93-5.6S290.17,66.61,267,66.8Z" fill="#ffd200"></path>
    <path d="M267,94.29l-15.29,22.87s15.41,11.72,33.27-2.06c0,0,12.21-8.85,8.95-26.41Z" fill="#24285b"></path>
    <rect x="243.33" y="140.09" width="47.33" height="9.99" fill="#a5a5a5" opacity="0.39"></rect>
    <rect x="243.33" y="156.58" width="47.33" height="9.99" fill="#a5a5a5" opacity="0.13"></rect>
    <rect x="105.92" y="70.29" width="108.4" height="20.5" fill="#fff"></rect>
    <rect x="183" y="70.29" width="31.31" height="20.5" fill="#68e1fd"></rect>
    <rect x="287.65" y="181.95" width="54.04" height="34.44" fill="#ffd200"></rect>
    <rect x="298.31" y="202.09" width="7.33" height="7.33" fill="#24285b"></rect>
    <rect x="310.66" y="194.21" width="7.33" height="15.21" fill="#24285b"></rect>
    <rect x="323.7" y="188.92" width="7.33" height="20.5" fill="#24285b"></rect>
    <rect x="114.73" y="104.79" width="21.13" height="21.13" fill="#24285b"></rect>
    <rect x="114.73" y="137" width="21.13" height="21.13" fill="#24285b"></rect>
    <polyline points="121.67 114.45 123.67 118.67 129.65 112.04" fill="none" stroke="#fff" stroke-linecap="round"
              stroke-linejoin="round" stroke-width="2"></polyline>
    <polyline points="121.67 146.65 123.67 150.87 129.65 144.25" fill="none" stroke="#fff" stroke-linecap="round"
              stroke-linejoin="round" stroke-width="2"></polyline>
    <path d="M188.92,122.44c.69,0,.9.24.9.93v1.47a6.71,6.71,0,0,1,5.52,4.16c.36.72.21,1.11-.6,1.47l-1.47.66c-.69.33-1,.18-1.41-.54a3.76,3.76,0,0,0-3.84-2.31c-2.55,0-3.71.75-3.71,2.46a2.27,2.27,0,0,0,2.06,2,16.78,16.78,0,0,0,2.16.33,14.06,14.06,0,0,1,4,.78,5.45,5.45,0,0,1,1.77,1,5.79,5.79,0,0,1,1.59,4.2c0,3.27-2.19,5.48-6.06,6v1.56c0,.69-.21.93-.9.93h-1.65c-.69,0-.93-.24-.93-.93V145.1a6.83,6.83,0,0,1-6-4.61,1,1,0,0,1,.69-1.38l1.47-.54c.75-.27,1.08-.09,1.41.66a3.9,3.9,0,0,0,4,2.52c2.76,0,4.14-.87,4.14-2.64a1.84,1.84,0,0,0-1.29-1.86,10.21,10.21,0,0,0-3-.57,13.19,13.19,0,0,1-4-.87,5.64,5.64,0,0,1-1.74-1,5.47,5.47,0,0,1-1.62-4.08c0-3.24,2-5.39,5.87-5.9v-1.47c0-.69.24-.93.93-.93Z"
          fill="#a5a5a5"></path>
    <polygon points="37.45 57.52 37.45 75.89 49.32 75.89 51.92 83.2 54.98 75.89 66.86 75.89 66.86 57.52 37.45 57.52"
             fill="#e6e6e6"></polygon>
    <path d="M50.67,70.81h0a.91.91,0,0,1-.69-.36l-3.1-4a.92.92,0,0,1,1.45-1.13l2.44,3.14,6-6.5a.92.92,0,1,1,1.35,1.25l-6.76,7.29A.91.91,0,0,1,50.67,70.81Z"
          opacity="0.12"></path>
</svg>