<svg id="Layer_1" data-name="Layer 1" xmlns="http://www.w3.org/2000/svg" viewBox="0 0 400 300" width="406" height="306" class="illustration styles_illustrationTablet__1DWOa"><title>_</title><ellipse cx="200" cy="224" rx="161.77" ry="12.69" fill="#e6e6e6" opacity="0.3"></ellipse><path d="M72.35,148S55.77,156,53.61,174.31,45.32,228.05,90.38,226s66.31-4.53,55.68-39S72.35,148,72.35,148Z" fill="#ffd200"></path><path d="M70.68,157.55a13.13,13.13,0,0,0,6,13.47c6.11,4,15.52,18.34,22.82,25.59a11.9,11.9,0,0,1,3.56,8.64,5.22,5.22,0,0,0,2.25,4.16c5.07,4.14,26.34,6.22,38.24-6.53s-3.79-19.06-3.79-19.06l-52.28-28.3Z" opacity="0.09"></path><path d="M186.25,220a6.06,6.06,0,0,0,3.89,3.43c2.78.63,4.29,4.05-1.79,3.49s-9.41.4-8.54-2.94.48-3.84.48-3.84Z" fill="#f4a28c"></path><path d="M145.43,217.61a6.06,6.06,0,0,0,1.61,4.93c2.07,2,1.63,5.68-3.32,2.1s-8.31-4.45-5.86-6.87,2.37-3.07,2.37-3.07Z" fill="#f4a28c"></path><path d="M150.71,175.39s37.17.38,36.81,44.71l-8.77,1.48s-1.68-46.8-50-24.51l2.52-18.44Z" fill="#24285b"></path><path d="M150.71,175.39s37.17.38,36.81,44.71l-8.77,1.48s-1.68-46.8-50-24.51l2.52-18.44Z" opacity="0.09"></path><polygon points="153.66 134.56 156.88 135.42 154.59 132.95 153.66 134.56" fill="#ffd200"></polygon><path d="M103,156.5s6.42,16.22,22.1,13.38,21.63-35.75,21.63-35.75,6.21-4,3.2-8.53-7.88,5.23-7.88,5.23-6.75,27.71-21.37,18.73Z" fill="#f4a28c"></path><path d="M103,156.5s6.42,16.22,22.1,13.38,21.63-35.75,21.63-35.75,6.21-4,3.2-8.53-7.88,5.23-7.88,5.23-6.75,27.71-21.37,18.73Z" opacity="0.09"></path><path d="M103.15,123.52l3.4.71s26.18,14.21,21.31,28.45,5.77,27.76,5.77,27.76l-22.77,16s-29.75-14.78-25.3-55.42C85.56,141.06,87.63,122.11,103.15,123.52Z" fill="#68e1fd"></path><rect x="150" y="128.51" width="4.76" height="40.68" transform="translate(79.55 -51.33) rotate(25.68)" fill="#e6e6e6"></rect><polygon points="101.91 105.66 97.2 122.28 106.55 124.22 106.22 111.35 101.91 105.66" fill="#f4a28c"></polygon><path d="M106.41,114.17a6.29,6.29,0,0,1-2.84-2.2s-.24,3.16,2.84,6.67Z" fill="#ce8172" opacity="0.31"></path><path d="M111.59,106.15a32.74,32.74,0,0,1-2,8.53,2.64,2.64,0,0,1-3.51,1.32,5.85,5.85,0,0,1-3.74-5.14l-.74-4.81a4.71,4.71,0,0,1,2.93-4.61C107.88,99.85,112,103,111.59,106.15Z" fill="#f4a28c"></path><path d="M105.29,109.61s.31-2-1.22-2.12-2,2.78,0,3.42Z" fill="#f4a28c"></path><path d="M111.13,109.44l1.09,2.26a.84.84,0,0,1-.75,1.21l-2.06,0Z" fill="#f4a28c"></path><rect x="136.75" y="128.17" width="18.62" height="1.86" transform="matrix(0.87, 0.5, -0.5, 0.87, 84.12, -55.73)" fill="#24285b"></rect><path d="M116.08,187.64l-5.22,8.84s-18.94-9.16-24.37-34S99,147.31,99,147.31Z" opacity="0.18"></path><path d="M110.86,196.48s17.55-35.78,43.5-35.64-7.76,57.72-7.76,57.72L138,215.08s12.74-24.71,9.48-32.66S139.33,229.34,110.86,196.48Z" fill="#24285b"></path><path d="M95.84,125.53s7.81-4,11.78,4.08.84,42.66,16.94,44.46,24.27-15,24.27-15,1.33-7.08,3.55-8.23,4.15,6.25,0,10.57c0,0-7.1,26.68-29.62,27.28S73.62,143.79,95.84,125.53Z" fill="#f4a28c"></path><path d="M111.63,99.33s5.13,6-1.52,7.3-8,2.46-7.37,9.19S106,128.74,97.2,133,96,144.21,94.34,152.5s-9.37,14-19.28,8.34-16-20.05-5.41-28.7,24-10.73,24-24.65S104.76,92.85,111.63,99.33Z" fill="#24285b"></path><rect x="146.56" y="159.63" width="7.04" height="3.97" transform="translate(67.42 -42.86) rotate(20.87)" fill="#68e1fd"></rect><rect x="146.56" y="159.63" width="7.04" height="3.97" transform="translate(67.42 -42.86) rotate(20.87)" fill="#fff" opacity="0.44"></rect><path d="M320.94,145.54s33.2,5.61,31.66,28.77c-1.22,18.42,8.29,53.74-36.76,51.72s-66.31-4.53-55.69-39S320.94,145.54,320.94,145.54Z" fill="#ffd200"></path><path d="M335.53,157.55a13.13,13.13,0,0,1-6,13.47c-6.11,4-15.51,18.34-22.82,25.59a11.94,11.94,0,0,0-3.56,8.64,5.22,5.22,0,0,1-2.25,4.16c-5.07,4.14-26.34,6.22-38.23-6.53s3.78-19.06,3.78-19.06L318,148.13C316.22,147.19,333.42,150.59,335.53,157.55Z" opacity="0.09"></path><path d="M220,220a6.06,6.06,0,0,1-3.9,3.43c-2.78.63-4.29,4.05,1.79,3.49s9.42.4,8.54-2.94-.47-3.84-.47-3.84Z" fill="#f4a28c"></path><path d="M249.07,221.58a6.07,6.07,0,0,1-3.21,4.09c-2.61,1.13-3.48,4.76,2.4,3.11s9.33-1.33,7.86-4.45-1.17-3.69-1.17-3.69Z" fill="#f4a28c"></path><path d="M255.5,175.39s-37.17.38-36.81,44.71l8.78,1.48s1.68-46.8,50-24.51l-2.52-18.44Z" fill="#24285b"></path><path d="M255.5,175.39s-37.17.38-36.81,44.71l8.78,1.48s1.68-46.8,50-24.51l-2.52-18.44Z" opacity="0.09"></path><path d="M256.84,134.9s-13.25,6.8-17.79,3.69-5.83-20.42-5.83-20.42L227,119.55s-2.39,34.2,8.14,37.75S264,151.77,264,151.77Z" fill="#f4a28c"></path><path d="M293.05,134.88c-4.37,8.68-13.94,20.31-34.24,22.46l-4.35-21.81s15.44-9.76,31.79-11A7.12,7.12,0,0,1,293.05,134.88Z" fill="#68e1fd"></path><path d="M293.05,134.88c-4.37,8.68-13.94,20.31-34.24,22.46l-4.35-21.81s15.44-9.76,31.79-11A7.12,7.12,0,0,1,293.05,134.88Z" fill="#fff" opacity="0.46"></path><path d="M232.91,118.24c.31-.07.62-6.68-.18-6.07a3.66,3.66,0,0,0-1.09,1.85s0-4.68-2.41-4.16-3.23,5.91-2.28,9.69l5.92-1.09" fill="#f4a28c"></path><path d="M289.48,104.68a27.38,27.38,0,0,0,0,7.36,2.21,2.21,0,0,0,2.62,1.74,4.9,4.9,0,0,0,4-3.48l1.52-3.79a4,4,0,0,0-1.52-4.34C293.71,100.25,289.72,102,289.48,104.68Z" fill="#f4a28c"></path><polygon points="297.36 107.19 298.87 121.62 290.86 121.89 292.98 111.28 297.36 107.19" fill="#f4a28c"></polygon><path d="M290.57,104.93a17.72,17.72,0,0,0,4.09-.1,3.71,3.71,0,0,0-.22,4,3,3,0,0,0,3.57,1.39l.23-5.69a4.5,4.5,0,0,0-2.07-4.13,15.71,15.71,0,0,0-1.85-1c-1.6-.74-4.05.22-5.46-1a1.07,1.07,0,0,0-1.73.61c-.34,1.71-.18,4.44,2.11,5.51A4.09,4.09,0,0,0,290.57,104.93Z" fill="#ffd200"></path><path d="M294,108.72s.12-1.7,1.39-1.5,1.11,2.66-.64,2.79Z" fill="#f4a28c"></path><path d="M289.24,107.47l-1.33,1.63a.72.72,0,0,0,.39,1.14l1.67.41Z" fill="#f4a28c"></path><path d="M292.41,113.58a5.26,5.26,0,0,0,2.67-1.4,8.27,8.27,0,0,1-3.3,5.1Z" fill="#ce8172" opacity="0.31"></path><path d="M316.21,135.85a22.08,22.08,0,0,0-21.58-14.3l-3.55.12s-24.95-.11-26.84,22.61S272.62,185,272.62,185l33.53,1.22S323.45,155.89,316.21,135.85Z" fill="#68e1fd"></path><path d="M299.32,133.35s-4.78,16.86-3,33.2-2.9,19.21-2.9,19.21l12.76.46s3.79-6.56,4.82-10S317.54,134,299.32,133.35Z" opacity="0.08"></path><path d="M310.84,127.25c7.72,5.9,17.38,17.46,15.72,37.81l-22.24.23s-6.72-17-4.87-33.27A7.12,7.12,0,0,1,310.84,127.25Z" fill="#68e1fd"></path><path d="M310.84,127.25c7.72,5.9,17.38,17.46,15.72,37.81l-22.24.23s-6.72-17-4.87-33.27A7.12,7.12,0,0,1,310.84,127.25Z" fill="#fff" opacity="0.46"></path><path d="M324.46,165.08s.57,30.11-8.11,47.43l-4.74-.71s3.92-28.82-3.92-46.54Z" fill="#f4a28c"></path><path d="M316.35,212.51s-2.05,9.9-7.36,6.29,2.62-7,2.62-7Z" fill="#f4a28c"></path><path d="M305.8,187.07s-28-26.37-53.94-26.23-6,64.35-6,64.35l8.57-3.48s1-31.34,4.24-39.29S274.83,226.94,305.8,187.07Z" fill="#24285b"></path><polygon points="264.82 81.34 224.66 81.34 224.66 88.78 214.21 88.78 214.21 63.31 150.33 63.31 150.33 101.85 214.21 101.85 214.21 90.67 224.66 90.67 224.66 105.56 255.86 105.56 261.86 114.73 261.86 105.56 264.82 105.56 264.82 81.34" fill="#e6e6e6"></polygon><circle cx="236.73" cy="93.91" r="2.44" opacity="0.09"></circle><circle cx="244.74" cy="93.91" r="2.44" opacity="0.09"></circle><circle cx="252.75" cy="93.91" r="2.44" opacity="0.09"></circle><circle cx="170.19" cy="80.87" r="3.24" opacity="0.09"></circle><circle cx="180.81" cy="80.87" r="3.24" opacity="0.09"></circle><circle cx="191.43" cy="80.87" r="3.24" opacity="0.09"></circle></svg>