<svg id="Layer_1" data-name="Layer 1" xmlns="http://www.w3.org/2000/svg" viewBox="0 0 400 300" data-imageid="data-analyst-two-color" imageName="Data analyst" class="illustrations_image" style="width: 154px;"><title>_</title><ellipse cx="200" cy="242.7" rx="119.49" ry="13.28" fill="#e6e6e6" opacity="0.45"/><path d="M154.55,113.15c.51.36,12.51,18.85,26,16S201,99.72,201,99.72Z" fill="#f4a28c"/><path d="M139.14,46.79s-5.93-5-10.6-1.52S127,63,116.87,59.7c0,0,11,9.16,18.77-5.8Z" fill="#24285b"/><path d="M134.41,56.51s-4-.57-2.37-6.07,6.23-5.29,7.53-3.85Z" fill="#fdb868" class="target-color"/><path d="M146.46,53.53a29.66,29.66,0,0,1-1.89,7.77,2.41,2.41,0,0,1-3.22,1.15A5.32,5.32,0,0,1,138,57.72l-.62-4.4a4.32,4.32,0,0,1,2.74-4.17C143.16,47.74,146.91,50.63,146.46,53.53Z" fill="#f4a28c"/><polygon points="136.4 55.77 133.27 71.22 141.91 72.34 140.75 60.94 136.4 55.77" fill="#f4a28c"/><path d="M146,56.53l1,2.07a.77.77,0,0,1-.7,1.1h-1.87Z" fill="#f4a28c"/><path d="M140.78,61.26a5.81,5.81,0,0,1-2.64-1.71s-1,3.31,3,5Z" fill="#ce8172" opacity="0.31"/><path d="M136.72,55.85s.32-1.83-1.08-2-1.86,2.51,0,3.12Z" fill="#f4a28c"/><path d="M145.51,53.12a13.78,13.78,0,0,1-4.58-.53s-1.58,5.2-6,6c0,0-3.09-8.38,2.16-10.89,4.39-2.11,7.7-4,10.74-.6A3.61,3.61,0,0,1,145.51,53.12Z" fill="#24285b"/><path d="M140.69,55.39s0-2.15-1.7-2-2,2.63,0,3.85Z" fill="#f4a28c"/><path d="M133.27,71.22l8.64,1.12s46.75,22.44,20,54a17.88,17.88,0,0,0-4.17,9.29l-2.42,19.41H120.2S69.48,82.56,133.27,71.22Z" fill="#fdb868" class="target-color"/><path d="M194.29,53.9l25.29,63.38-67.21,11.86S140.72,74.79,194.29,53.9Z" fill="#ffd200"/><polygon points="158.03 182.14 159.09 239.65 155.37 240.74 143.51 186.39 158.03 182.14" fill="#f4a28c"/><path d="M133.52,89.19s9.82,14.88-3.63,29-5.66,26.39,9.68,16.73,17.82,2.93,17.82,2.93l-.91,7.9-23.88-.27-26.46.1-9.31-22.07Z" opacity="0.08"/><path d="M159,238.81s2.26,2.66,5,2.42,3.3,3.66-1.16,3.42a24.14,24.14,0,0,1-4.12-.56,7.33,7.33,0,0,0-3.74.27,1.19,1.19,0,0,1-1.29-.46c-1.31-1.43,1.66-5,1.66-5Z" fill="#fdb868" class="target-color"/><polygon points="110.08 182.02 106.14 239.41 109.8 240.68 124.37 186.99 110.08 182.02" fill="#f4a28c"/><path d="M106.27,238.57s-2.39,2.54-5.13,2.17-3.48,3.48,1,3.47a24.43,24.43,0,0,0,4.15-.35,7.3,7.3,0,0,1,3.72.45,1.19,1.19,0,0,0,1.31-.39c1.38-1.37-1.41-5-1.41-5Z" fill="#fdb868" class="target-color"/><polygon points="156.48 145.72 166.27 204.82 140.69 204.82 129.89 204.82 98.93 205.5 112.43 145.72 156.48 145.72" fill="#24285b"/><path d="M133.52,89.19c.55-10.37-11.49-16.54-19.9-10.45C102.26,87,86.14,101,90.54,137.28c5.34,44.05,60.58-1.61,60.58-1.61l-2.29-5.81s-30.36,19-38.51,7.08c-2.51-3.67.93-9.21,3.51-13.61C118.5,115.39,132.86,101.85,133.52,89.19Z" fill="#f4a28c"/><path d="M148.83,129.86s2.27-5.94,6.08-4.63,1.05,9.22-3.79,9.66Z" fill="#f4a28c"/><path d="M129.89,71.9s-1.2-3.72,5.69-4.5,12.4,2.15,10.13,7C145.71,74.42,140.52,78.56,129.89,71.9Z" fill="#fdb868" class="target-color"/><path d="M129.89,71.9s-1.2-3.72,5.69-4.5,12.4,2.15,10.13,7C145.71,74.42,140.52,78.56,129.89,71.9Z" fill="#fff" opacity="0.46"/><rect x="146.99" y="129.48" width="4.58" height="8.7" transform="translate(-50.95 123.66) rotate(-38.97)" fill="#24285b"/><path d="M296.56,141a55.46,55.46,0,0,1-24.68,46.18.21.21,0,0,1-.08.06,55.29,55.29,0,0,1-30.8,9.31c-1,0-1.91,0-2.85-.07l-.87-.06A55.18,55.18,0,0,1,204.66,183l-.1-.08a55.33,55.33,0,0,1-19-38.44c-.09-1.16-.12-2.32-.12-3.49a55.84,55.84,0,0,1,1.13-11.2l0-.12L241,141V85.45A55.55,55.55,0,0,1,296.56,141Z" fill="#fdb868" class="target-color"/><path d="M271.88,187.19a.21.21,0,0,1-.08.06,54.55,54.55,0,0,1-33.65,9.24l-.87-.06a57.92,57.92,0,0,1-26.63-9.21c-2-1.24-4-2.63-6-4.19h0l-.1-.08a53,53,0,0,1-19-38.44,62.78,62.78,0,0,1,1-14.69l0-.12L241,141Z" fill="#24285b"/><rect x="262.56" y="105.58" width="48.76" height="31.07" fill="#ffd200"/><rect x="272.18" y="123.75" width="6.61" height="6.61" fill="#24285b"/><rect x="283.33" y="116.65" width="6.61" height="13.72" fill="#24285b"/><rect x="295.09" y="111.87" width="6.61" height="18.5" fill="#24285b"/><path d="M212.42,87.88a4.12,4.12,0,0,0-1.65-2.56,8.5,8.5,0,0,0-5.23-.51c-1.66.45-1.88,1.72-1.86,3.4s.12,3.58,1.35,4.73a4,4,0,0,0,4.59.92A5.14,5.14,0,0,0,212.42,87.88Z" fill="#f4a28c"/><path d="M235.63,176.4a12.83,12.83,0,1,0-19.54-1.67l-1.9,1.9-.68-.68-17,17,4.43,4.42,17-17-.68-.68,1.9-1.9A12.82,12.82,0,0,0,235.63,176.4Zm-14.71-14.71a8,8,0,1,1,0,11.29A8,8,0,0,1,220.92,161.69Z" fill="#c9c9c9"/><path d="M281.13,231s-8.62-2.35-10.49-10.38c0,0,13.35-2.7,13.74,11.09Z" fill="#fdb868" opacity="0.58" class="target-color"/><path d="M282.19,230.13s-6-9.53-.72-18.43c0,0,10.16,6.45,5.64,18.45Z" fill="#fdb868" opacity="0.73" class="target-color"/><path d="M283.74,230.13s3.19-10,12.81-12c0,0,1.8,6.53-6.23,12Z" fill="#fdb868" class="target-color"/><polygon points="277.49 229.91 279.24 241.87 290.25 241.91 291.87 229.97 277.49 229.91" fill="#24285b"/></svg>