<svg id="Layer_1" data-name="Layer 1" xmlns="http://www.w3.org/2000/svg" viewBox="0 0 400 300" data-imageid="data-center-two-color" imageName="Data Center" class="illustrations_image" style="width: 154px;"><title>#85_data centre_twocolour</title><ellipse cx="204.01" cy="256.14" rx="160.03" ry="19.34" fill="#e6e6e6" opacity="0.45"/><rect x="249.37" y="213.27" width="57.93" height="18.37" fill="#e6e6e6"/><rect x="249.37" y="231.96" width="81.33" height="18.37" fill="#c9c9c9"/><rect x="117.31" y="45.24" width="166.64" height="210.89" fill="#24285b"/><rect x="131.04" y="55.67" width="138.84" height="33.92" rx="9.29" ry="9.29" fill="#fff" opacity="0.07"/><rect x="156.4" y="33.13" width="84.82" height="12.11" fill="#fdb868" class="target-color"/><circle cx="253.88" cy="72.67" r="9.07" fill="#fdb868" class="target-color"/><rect x="145.26" y="68.36" width="89.97" height="8.62" fill="#fff"/><rect x="131.04" y="107.23" width="138.84" height="33.92" rx="9.29" ry="9.29" fill="#fff" opacity="0.07"/><circle cx="253.88" cy="124.23" r="9.07" fill="#fdb868" class="target-color"/><rect x="145.26" y="119.92" width="89.97" height="8.62" fill="#fff"/><rect x="131.04" y="158.78" width="138.84" height="33.92" rx="9.29" ry="9.29" fill="#fff" opacity="0.07"/><circle cx="253.88" cy="175.78" r="9.07" fill="#fdb868" class="target-color"/><rect x="145.26" y="171.47" width="89.97" height="8.62" fill="#fff"/><rect x="131.04" y="210.33" width="138.84" height="33.92" rx="9.29" ry="9.29" fill="#fff" opacity="0.07"/><circle cx="253.88" cy="227.33" r="9.07" fill="#fdb868" class="target-color"/><rect x="145.26" y="223.02" width="89.97" height="8.62" fill="#fff"/><rect x="273.77" y="21.33" width="48.83" height="35.65" fill="#ffd200"/><path d="M295.34,47.62h-.06a1.43,1.43,0,0,1-1.07-.56l-4.84-6.22a1.43,1.43,0,0,1,2.26-1.76l3.8,4.9,9.39-10.14a1.43,1.43,0,0,1,2.1,1.94L296.39,47.16A1.44,1.44,0,0,1,295.34,47.62Z" fill="#fff"/><path d="M125.21,64.36s8.55-3.84,8.55,3.07-8.72,27.76-3.92,30.7,25.52-2.21,28.81,18.57-4.34,69.21,47.92,73.91c0,0,5.58,12.78-9.1,11.24s-37.29-9.31-42.87-6.9,1.18,60.69,1.18,60.69H117.63l.26-64.15L117,90.07Z" opacity="0.2"/><path d="M123.69,72s.66,5.82-.22,9.72a2.93,2.93,0,0,1-3.54,2.21,6.47,6.47,0,0,1-5.2-4.75l-1.88-5.07A5.25,5.25,0,0,1,115,68.43C118.26,66,123.47,68.43,123.69,72Z" fill="#f4a28c"/><path d="M153.13,96.76S172.71,100.28,168,139s35.28,48.34,35.28,48.34,10.62-3.32,12.19,3.13-12.19,4-12.19,4-42,1.91-59-39C144.29,155.48,133.76,106.55,153.13,96.76Z" fill="#f4a28c"/><polygon points="113.92 75.54 109.19 94.14 119.63 96.01 118.88 81.73 113.92 75.54" fill="#f4a28c"/><path d="M112.21,78.66h0a.56.56,0,0,0,.43.52A3.88,3.88,0,0,0,117,77.35a4.86,4.86,0,0,0-.14-5.35,23.75,23.75,0,0,0,5.41.27,5.63,5.63,0,0,0,1.77-.4l1.39-4.44s2.3-4.45-.31-5.34-3.76,2.09-5.9,0-2.64-2.87-4.79-1.67.35,2.88-3.2,2.93-3.61,1.51-3.61,3.13a2.81,2.81,0,0,0,.71,1.47A18,18,0,0,1,112.21,78.66Z" fill="#ffd200"/><path d="M117.6,77.16s-.1-2.25-1.79-2-1.56,3.47.75,3.71Z" fill="#f4a28c"/><path d="M123.92,75.68l1.69,2.21a1,1,0,0,1-.55,1.49l-2.23.48Z" fill="#f4a28c"/><path d="M118.94,83.63s-1.34-.23-3.76-2.42c0,0-.34,3.82,4,6.62Z" fill="#ce8172" opacity="0.31"/><polygon points="98.52 187.38 95 252.37 99.02 252.31 113.39 188.17 98.52 187.38" fill="#f4a28c"/><polygon points="137.6 187.38 141.12 252.37 136.69 252.37 122.73 188.17 137.6 187.38" fill="#f4a28c"/><path d="M78,117.21a21.58,21.58,0,0,1,19.73-24c15.76-1.25,37.76-1.58,55.4,3.54,31.13,9-13.23,83.27-13.23,83.27L95,177.81S81.62,148.85,78,117.21Z" fill="#fdb868" class="target-color"/><path d="M104.2,104.2s10.37,8.41,5,21.53-14.51,25.08,0,27.4,27.87-12.7,30.71-30.81,7.75-13.82,7.75-13.82l11.94,1.37L154.7,145.3l-13.58-.39s-9,19-24.14,34l-22-1.08L91.73,170l-11.8-31.72Z" opacity="0.08"/><path d="M95,177.81v33.35h19.41l.89-11.88a16.88,16.88,0,0,1,11.38-14.72L139.9,180Z" fill="#24285b"/><rect x="127.43" y="104" width="24.93" height="36.64" transform="translate(16.64 -16.75) rotate(7.29)" fill="#ffd200"/><path d="M152.46,122.32a26.07,26.07,0,0,1-26.91,13.92l-.34,2.67,24.73,3.16Z" opacity="0.08"/><path d="M139.9,180l3.64,31.13H122.83s-.86-13.39-6.7-23Z" fill="#24285b"/><path d="M103.54,117.11C111.2,102,92.81,87.27,79.67,98A38.14,38.14,0,0,0,67.21,115.3c-7.83,23-15.67,59.84,18.2,55.71s52.39-28.94,52.39-28.94l-4.83-6s-19.52,18.54-40.29,13.31C79.46,146.08,95.24,133.46,103.54,117.11Z" fill="#f4a28c"/><path d="M140.92,252.31s1.65,3,4.54,2.75,4.09,2.44,1.65,3.59-9.6-1.08-9.6-1.08l-.61-5.26Z" fill="#fdb868" class="target-color"/><path d="M95.09,252.31s-1.65,3-4.54,2.75-4.09,2.44-1.65,3.59,9.6-1.08,9.6-1.08l.61-5.26Z" fill="#fdb868" class="target-color"/><path d="M133,136.1s4.31-5.71,9.74-4.3-4.91,10.27-4.91,10.27Z" fill="#f4a28c"/></svg>