<svg transform="scale(1)" version="1.1" id="Layer_1" xmlns="http://www.w3.org/2000/svg" xmlns:xlink="http://www.w3.org/1999/xlink" x="0px" y="0px" viewBox="0 0 500 500" xml:space="preserve" class="show_show__wrapper__graphic__5Waiy "><title>React</title><style type="text/css">
	.st0{fill:#ffffff;}
	.st1{fill:#111111;}
	.st2{fill:#4383ad;}
</style><g id="balloon"><path class="st0" d="M90,158.8c11.7,1.9,23.6,2.4,35.4,1.6l-10-12.4c21.8-14.5,35-38.9,35-65.1c-0.1-13.7-4.1-27.5-12.2-38.6
		s-20.5-19.1-34.1-21c-18-2.5-36.7,6.4-47.3,21.1s-13.3,34.5-8.3,52s17,32.5,32.2,42.4c6.9,4.5,18.4,5.1,24.1,10
		C103.4,150.5,92.4,159.2,90,158.8z"></path><path class="st1" d="M115,161.6c-8.4,0-16.8-0.7-25.1-2c-0.4-0.1-0.7-0.4-0.6-0.8c0,0,0,0,0,0c0.1-0.4,0.4-0.7,0.9-0.6l0,0
		c0.5,0.1,2.6-0.7,7.2-4.1c2.2-1.6,4.3-3.3,6.3-5.1c-2.9-2.2-7.1-3.5-11.6-4.8c-4.2-1.2-8.5-2.5-11.8-4.7
		c-15.9-10.4-27.8-26-32.5-42.8c-5.2-18.4-2-38,8.4-52.6c11-15.3,30.3-23.9,48-21.4c13.4,1.9,26,9.6,34.6,21.3
		c7.8,10.7,12.2,24.5,12.3,39c0.2,25.6-13.3,51.1-34.6,65.3L126,160c0.2,0.2,0.2,0.5,0.1,0.8c-0.1,0.3-0.4,0.4-0.6,0.4
		C122,161.4,118.5,161.6,115,161.6z M93.1,158.6c10.2,1.4,20.5,1.9,30.8,1.3l-9.1-11.3c-0.1-0.2-0.2-0.4-0.2-0.6
		c0-0.2,0.2-0.4,0.3-0.5c21.3-13.8,34.9-39.1,34.6-64.5c-0.1-14.2-4.4-27.7-12.1-38.1c-8.3-11.4-20.6-19-33.6-20.8
		c-17.2-2.4-35.9,6-46.6,20.8C47.2,59,44.1,78.2,49.2,96.2c4.7,16.5,16.3,31.8,31.9,42c3.1,2,7.3,3.3,11.4,4.5
		c5,1.5,9.6,2.9,12.8,5.6c0.3,0.3,0.3,0.7,0.1,1C104.4,150.5,97.6,156.1,93.1,158.6L93.1,158.6z"></path><path class="st1" d="M219.4,349.8c-0.4,0-0.8-0.2-0.9-0.6c-7.4-18.3-23.2-31.5-38.5-44.3c-2.9-2.4-5.8-4.9-8.7-7.4
		c-23.9-20.7-41.4-42.9-52.2-65.7c-12.9-27.5-16.2-56.8-9.2-82.6c0.1-0.5,0.7-0.9,1.2-0.7c0.5,0.1,0.9,0.7,0.7,1.2c0,0,0,0,0,0.1
		c-6.8,25.3-3.6,54.1,9.1,81.2c10.6,22.6,28,44.5,51.7,65c2.8,2.5,5.8,4.9,8.6,7.3c15.4,13,31.4,26.4,39.1,45.1
		c0.2,0.5,0,1.1-0.5,1.3C219.7,349.7,219.5,349.8,219.4,349.8z"></path><path class="st1" d="M217.8,359c-0.4,0-0.7-0.2-0.9-0.5c-6.9-12.9-20.3-23.3-40-31c-6.4-2.5-13.1-4.7-19.6-6.8
		c-9.9-3.2-20.2-6.5-29.7-11.2c-33-16.5-55.8-48.1-61-84.6c-0.1-0.6,0.3-1.1,0.9-1.1c0.6-0.1,1.1,0.3,1.1,0.9
		c5.1,35.9,27.5,66.9,59.9,83.1c9.4,4.6,19.6,7.9,29.4,11.1c6.5,2.1,13.2,4.3,19.7,6.8c20.1,7.9,33.9,18.6,41,32
		c0.3,0.5,0.1,1.1-0.4,1.4c0,0,0,0,0,0C218.2,359,218,359,217.8,359z"></path><path class="st1" d="M222.3,352.4c-0.4,0-0.8-0.3-0.9-0.7c-8-23.1-24.4-42.5-40.1-61.3l-3.5-4.1c-17-20.2-34-42.2-39.4-68.6
		c-0.1-0.6,0.2-1.1,0.8-1.2s1.1,0.2,1.2,0.8c5.3,25.9,22.2,47.6,39,67.7l3.5,4.1c15.9,18.9,32.4,38.4,40.5,61.9
		c0.2,0.5-0.1,1.1-0.6,1.3c0,0,0,0,0,0C222.6,352.4,222.5,352.4,222.3,352.4z"></path><path class="st1" d="M126.4,224.4l22-0.3l-7.8-18.5c18.9-4.3,33.6-21.1,37.7-40s-1.7-39.2-13.3-54.7c-7.4-9.8-17.3-18-29-21.5
		c-16.4-4.9-35.2,0.6-46.9,13s-16,31.2-11.5,47.6c3.6,13.1,12.3,24.4,22.6,33.3c8.2,7.1,17.3,12.4,26.4,18c4.4,2.7,6.5,3.6,6,8.9
		C132.5,211.6,127.2,224.4,126.4,224.4z"></path><path class="st2" d="M9.8,172.7c-5.9-17.4-3.6-36.5,6.2-52c7.1-11,18.3-19.8,31.3-21.8c10.5-1.7,21.4,1.1,30.7,6.3
		c20.8,11.6,33.8,35.7,32.2,59.4s-17.7,45.8-39.8,54.6l19.8,13.3l-40.8,11.4c1.4-0.4,11-22.8,12.5-25.6c-11-2.2-18-8.2-27.2-14.2
		C23.2,196.6,14.4,185.6,9.8,172.7z"></path><path class="st1" d="M312.4,447.3c-0.1,0-0.2,0-0.3,0c-0.5-0.2-0.8-0.7-0.7-1.2c5.2-18.4,18.9-32.7,32.1-46.6
		c2.4-2.6,5-5.2,7.4-7.8c20.1-21.8,34.2-44.2,41.8-66.6c9.1-26.8,9.2-54.3,0.1-77.4c-0.2-0.5,0.1-1.1,0.6-1.3c0.5-0.2,1.1,0,1.3,0.6
		c0,0,0,0,0,0c9.2,23.5,9.2,51.5-0.1,78.7c-7.7,22.7-21.9,45.3-42.3,67.3c-2.4,2.6-4.9,5.3-7.4,7.8c-13,13.6-26.5,27.8-31.6,45.7
		C313.2,447.1,312.9,447.3,312.4,447.3z"></path><path class="st1" d="M314.9,455.9c-0.1,0-0.2,0-0.4-0.1c-0.5-0.2-0.8-0.8-0.6-1.3c5.3-13.3,17.2-24.9,35.3-34.4
		c5.8-3.1,11.9-5.8,17.8-8.5c8.9-4,18.2-8.2,26.5-13.5c28.8-18.6,46.7-50.2,47.7-84.5c0-0.6,0.5-1,1-1s1,0.5,1,1
		c-1.1,35-19.3,67.1-48.7,86.1c-8.5,5.4-17.8,9.6-26.8,13.6c-5.9,2.6-12,5.4-17.7,8.4c-17.7,9.3-29.2,20.5-34.4,33.4
		C315.6,455.6,315.3,455.9,314.9,455.9z"></path><path class="st1" d="M309.9,450.2c-0.1,0-0.1,0-0.2,0c-0.5-0.1-0.9-0.7-0.8-1.2c5.2-23,18.7-43.1,31.7-62.5l2.8-4.2
		c13.7-20.6,27.3-42.8,29.7-67.8c0-0.6,0.5-1,1.1-0.9c0,0,0,0,0,0c0.5,0.1,1,0.5,0.9,1.1c-2.4,25.4-16.1,47.9-30,68.7l-2.8,4.2
		c-12.9,19.3-26.2,39.2-31.4,61.9C310.8,449.9,310.4,450.2,309.9,450.2z"></path><path class="st0" d="M387,319.5l-20.8,2l5.4-18.2c-18.2-2.1-33.9-16.4-39.7-33.7s-2.5-37.1,6.8-52.9c5.9-10,14.4-18.8,25.1-23.3
		c14.9-6.3,33.2-3.1,45.5,7.3s18.3,27.7,15.8,43.6c-2,12.8-9,24.3-17.8,33.7c-7,7.5-15,13.4-23,19.7c-3.9,3-5.8,4-4.7,9
		C379.9,308.1,386.2,319.6,387,319.5z"></path><path class="st1" d="M366.2,322.3c-0.2,0-0.4-0.1-0.6-0.3c-0.2-0.2-0.2-0.5-0.1-0.7l5.2-17.4c-17.6-2.4-33.4-16-39.4-34.1
		c-5.6-16.7-3-36.7,6.9-53.5c4.6-7.8,12.8-18.3,25.4-23.6c15-6.3,33.6-3.3,46.3,7.4c12.4,10.5,18.7,27.9,16,44.3
		c-1.9,11.6-8.1,23.4-18,34.1c-6,6.5-12.9,11.9-19.7,17.1l-3.4,2.7l-0.9,0.7c-3.2,2.5-4.4,3.5-3.5,7.5c0.2,1.1,5.8,11.1,6.9,12.2
		c0.3,0.1,0.5,0.3,0.5,0.6c0,0.4-0.3,0.8-0.7,0.8L366.2,322.3L366.2,322.3z M380.2,190.9c-5.5,0-11,1.1-16.1,3.2
		c-12.3,5.2-20.2,15.4-24.7,23c-9.7,16.4-12.2,35.9-6.8,52.3c6,17.9,21.7,31.2,39.1,33.2c0.4,0,0.7,0.4,0.7,0.8c0,0,0,0.1,0,0.1
		l-5.1,17.2l18.2-1.7c-2.6-3.4-6.6-11.9-6.6-12c-1.1-5,0.9-6.5,4.1-9l0.9-0.7l3.4-2.7c6.7-5.2,13.6-10.6,19.5-17
		c9.7-10.5,15.8-22,17.6-33.3c2.5-15.9-3.5-32.8-15.5-43C400.8,194.6,390.7,190.9,380.2,190.9L380.2,190.9z M387,318.8L387,318.8z"></path><path class="st1" d="M414.4,254c-10.8,3-21.9,4.7-33.1,5.2l8.1-12.7c-22-11.4-37-33-39.7-57.7c-1.3-12.9,1-26.3,7.5-37.6
		s17.3-20.1,29.9-23.3c16.6-4.2,35.2,2.2,46.7,14.9s16.1,31.1,13.3,48s-12.6,32.4-25.9,43.3c-6,5-16.8,6.8-21.6,12
		C400.9,247.6,412.2,254.6,414.4,254z"></path><path class="st2" d="M491.4,258.7c3.7-17-0.4-34.7-11.3-48.3c-7.8-9.6-19.3-16.7-31.7-17.3c-10.1-0.5-20,3.3-28.3,9.1
		c-18.3,13.1-28.1,37.1-24.1,59.3s21.5,41.3,43.2,47.2L422,323.3l39.6,6.4c-1.4-0.2-12.7-20.3-14.5-22.8c10.1-3.3,16-9.6,24.1-16.2
		C481.3,282.5,488.4,271.3,491.4,258.7z"></path></g><g id="character"><path class="st0" d="M180.3,361.2c-20.6-19.4-33-45.9-35-74.1c-0.2-2.7-0.3-5.5-1.6-7.9s-4.1-4.2-6.7-3.3s-3.5,3.8-3.2,6.4
		s1.9,4.8,3.3,6.9c-8.7-8.7-20.2-14-32.5-15c-3.5-0.3-7.3-0.1-9.9,2.2c-3.7,3.3-3,9.6,0.1,13.5s7.9,5.9,12.5,7.8
		c-6,1-8.6,9-6.1,14.5s8.1,8.9,13.7,11.2s11.6,4.2,16.1,8.1c5.5,4.7,8.2,11.7,11.5,18.1c10.1,19.4,26.4,34.9,46.3,43.9
		c18.1,8.2,46.3,13.5,65.4,5c12.5-5.6-6.9-7.5-11.2-8c-11.1-1.4-21.9-4.4-32.1-9C199.7,376.5,189.3,369.6,180.3,361.2z"></path><path class="st1" d="M231.2,403.5c-14.7-0.2-29.2-3.4-42.7-9.4c-20.1-9.1-36.5-24.7-46.6-44.3c-0.6-1.1-1.2-2.3-1.7-3.5
		c-2.6-5.2-5.2-10.6-9.6-14.4c-3.6-3-8.1-4.8-12.4-6.5c-1.2-0.5-2.4-0.9-3.5-1.4c-4.7-2-11.3-5.4-14.1-11.6
		c-1.4-3.5-1.3-7.5,0.5-10.8c0.9-1.8,2.3-3.2,4.1-4.1c-3.8-1.6-8.1-3.7-10.9-7.2c-3.3-4.1-4.1-10.9,0-14.5c3-2.7,7.4-2.7,10.5-2.4
		c10.7,0.9,21,5.1,29.3,11.9c-0.4-0.9-0.7-1.9-0.9-2.9c-0.4-2.7,0.8-6.1,3.7-7.2s6.2,1,7.6,3.6c1.3,2.4,1.4,5.1,1.6,7.7v0.5
		c1.9,28,14.4,54.3,34.8,73.6l0,0c9,8.4,19.3,15.2,30.5,20.1c10.1,4.5,20.9,7.5,31.9,8.9l0.8,0.1c7.6,0.9,14.8,2.2,15.2,5
		c0.2,1.5-1.2,2.9-4.6,4.4C247.7,402.2,239.6,403.5,231.2,403.5z M102.3,274.8c-2.4,0-5.2,0.4-7.1,2.1c-3.4,3.1-2.7,8.9,0.2,12.5
		c3.1,3.8,7.9,5.8,12.2,7.5c0.3,0.1,0.5,0.4,0.5,0.8c0,0.3-0.3,0.6-0.6,0.6c-2.2,0.4-4.1,1.9-5.1,3.9c-1.6,2.9-1.7,6.4-0.4,9.5
		c1.9,4.4,6.2,7.9,13.3,10.9c1.2,0.5,2.3,1,3.5,1.4c4.5,1.8,9.1,3.6,12.8,6.8c4.6,3.9,7.4,9.5,10,14.9c0.6,1.2,1.1,2.3,1.7,3.5
		c10,19.3,26.1,34.6,45.9,43.6c18.2,8.2,46.2,13.3,64.8,5c3.7-1.6,3.7-2.6,3.7-2.8c-0.1-0.8-2.1-2.4-13.9-3.8l-0.8-0.1
		c-11.2-1.4-22-4.5-32.3-9c-11.4-5-21.8-11.9-30.9-20.4l0,0c-20.7-19.6-33.3-46.2-35.3-74.6v-0.5c-0.1-2.5-0.3-5-1.4-7.1
		s-3.6-3.7-5.8-2.9s-3,3.4-2.7,5.5c0.3,2.4,1.8,4.6,3.2,6.6c0.2,0.3,0.2,0.8-0.1,1c-0.3,0.2-0.7,0.2-1,0c-8.6-8.5-19.9-13.7-32-14.8
		C103.9,274.8,103.1,274.8,102.3,274.8z"></path><path class="st2" d="M238.9,402.4c-6.5,10.5-5.9,24.1-1.5,35.6s12.2,21.3,19.8,30.9c2.9,3.7,6.4,7.6,11,8.1c4,0.4,8-2,10.4-5.3
		s3.5-7.3,4.6-11.3c5.1-20.5,7.9-41.4,8.6-62.4c0.2-4.4,0.2-9-1.9-12.9c-5.1-9.7-18.8-2.4-26.5,0.2
		C253.8,388.5,244.4,393.5,238.9,402.4z"></path><path class="st0" d="M329.8,334c14.1-22.2,25.8-46,41.9-66.7c12.5-16.1,28.1-30.5,46.5-38.7c4.4-1.9,7.6,4.5,3.4,6.7
		c-2.4,1.3-5,2.3-7.7,3c9,0,18.1,0,26.7,2.6c2.7,0.8,5.3,1.8,7.7,3.1c7.1,3.8,2.3,14.4-5.2,11.6c-1.5-0.5-2.9-1.2-4.2-1.9
		c4.6,4.2,1.9,12.5-3.5,15.5s-12.1,2.3-18.2,1.3s-12.6-2.2-18.4,0.2c-5.5,2.2-9.3,7.2-12.6,12.1c-13,19-23.6,39.5-36.2,58.8
		s-27.8,37.4-47.6,49.2c-4,2.4-17.3,10.4-20.9,4.3c-3.5-5.9,6.6-13.2,10-15.9C306.9,366.7,319.1,350.8,329.8,334z"></path><path class="st1" d="M285.8,398.1c-2.1,0.2-4.1-0.8-5.2-2.6c-3.6-6,5.2-13,9.5-16.3l0.7-0.6c13.5-10.8,25.7-25.1,38.3-44.9l0.6,0.4
		l-0.6-0.4c4.9-7.7,9.6-15.8,14.1-23.6c8.5-14.6,17.3-29.6,27.8-43.2c14-18.1,30.2-31.6,46.8-38.9c2.2-1,4.8-0.1,5.9,2.1
		c0,0,0,0,0,0.1c1.1,2.1,0.3,4.7-1.8,5.8c0,0-0.1,0-0.1,0.1c-1.1,0.6-2.3,1.1-3.4,1.6c7.4,0.1,15,0.4,22.3,2.6
		c2.7,0.8,5.4,1.9,7.9,3.2c3.5,1.7,5,6,3.3,9.5c-1.6,3.4-5.7,5-9.2,3.5c-0.5-0.2-1.1-0.4-1.6-0.7c0.7,1.5,0.9,3.2,0.7,4.8
		c-0.5,3.9-2.8,7.4-6.2,9.4c-5.7,3.2-12.6,2.4-18.7,1.4l-0.5-0.1c-5.9-1-12.1-2-17.5,0.2s-9,7.1-12.3,11.9
		c-6.9,10.1-13.3,20.9-19.4,31.3c-5.4,9.1-10.9,18.5-16.8,27.5c-15.5,23.5-30.7,39.2-47.8,49.5C299.4,393.4,291.5,398.1,285.8,398.1
		z M419.8,229.1c-0.4,0-0.9,0.1-1.3,0.3c-16.4,7.2-32.4,20.5-46.3,38.4c-10.4,13.5-19.2,28.5-27.7,43c-4.6,7.8-9.3,15.9-14.2,23.6
		c-12.7,20-25,34.4-38.6,45.3l-0.7,0.6c-3.6,2.8-12.1,9.5-9.1,14.4c2.2,3.6,8.9,2.1,19.9-4.5c16.9-10.1,32-25.7,47.4-49
		c5.9-8.9,11.4-18.3,16.8-27.4c6.1-10.4,12.5-21.2,19.5-31.4c3.4-5,7.2-10.1,13-12.4s12.1-1.3,18.3-0.3l0.5,0.1
		c5.8,1,12.5,1.7,17.7-1.2c3-1.8,5-4.8,5.4-8.3c0.4-2.2-0.4-4.5-2-6.1c-0.3-0.3-0.3-0.7-0.1-1c0.2-0.3,0.7-0.4,1-0.2
		c1.3,0.7,2.7,1.4,4.1,1.9c2.9,1.2,6.2-0.2,7.3-3.1c1.1-2.7-0.1-5.9-2.7-7.2c-2.4-1.3-4.9-2.3-7.6-3.1c-8.6-2.5-17.7-2.5-26.5-2.5
		c-0.4,0-0.7-0.3-0.8-0.6c-0.1-0.4,0.2-0.7,0.6-0.8c2.6-0.7,5.2-1.7,7.6-2.9c1.4-0.7,2-2.3,1.3-3.7c0-0.1-0.1-0.1-0.1-0.2
		C422.1,229.7,421,229,419.8,229.1L419.8,229.1z"></path><path class="st0" d="M429.4,246.9c-4.1-37.9-5.6-81.7-25.2-133.7c-3.3-8.6-11-14.8-20.1-16c-91.7-11.6-188.6,9.5-279.5,47.3
		c-7.9,3.3-16.6,7.5-19.1,15.2c-1.4,4.4-0.6,9.1,0.2,13.7c5.7,31,11.3,61.9,16.9,92.6l4.1,22.4c1.1,6.1,0.7,17.3,4.2,22.6
		c5.4,8.3,30.3-2,39.3-4c62.5-13.9,123.6-25.5,183.2-34.8c28.9-4.5,57.4-8.6,85.6-12C425.4,259.3,430.1,253.4,429.4,246.9z"></path><path class="st1" d="M119.2,314.9c-4,0-7.3-1-9-3.5c-2.5-3.8-3-10.3-3.5-16.1c-0.2-2.5-0.4-4.9-0.8-6.8l-21-115
		c-0.8-4.4-1.7-9.4-0.2-14c2.7-8.1,11.5-12.3,19.6-15.7c101.3-42.1,195.5-58.1,279.8-47.4c9.4,1.3,17.3,7.6,20.7,16.5
		c16.6,44,20.2,82.2,23.4,115.8c0.6,6.3,1.2,12.2,1.8,18c0.8,6.9-4.2,13.2-11.1,14c-28.1,3.5-56.9,7.5-85.6,12
		c-59.8,9.4-121.4,21.1-183.2,34.8c-1.9,0.4-4.6,1.2-7.6,2.2C135.2,312.1,126.1,314.9,119.2,314.9z M332.2,94.7
		c-70.3,0-146.5,16.9-227.2,50.5c-7.8,3.2-16.3,7.3-18.7,14.8c-1.4,4.3-0.5,9.1,0.2,13.3l21,115c0.3,1.9,0.6,4.3,0.8,6.9
		c0.5,5.6,1,11.9,3.3,15.4c3.9,6,20.1,1.1,30.8-2.1c3.1-1,5.8-1.8,7.7-2.2c61.8-13.7,123.4-25.4,183.2-34.8
		c28.6-4.5,57.5-8.6,85.6-12.1c6.1-0.7,10.5-6.2,9.9-12.3c0,0,0,0,0,0c-0.6-5.9-1.2-11.8-1.8-18c-3.2-33.6-6.9-71.6-23.4-115.5
		c-3.2-8.4-10.7-14.4-19.5-15.6C366.8,95.7,349.5,94.7,332.2,94.7L332.2,94.7z"></path><path class="st1" d="M298.2,316.2c5.1,2,11.1,2.8,14.5,7c3.2,3.9,3,9.6,1.9,14.5c-2,8.8-7.4,17.8-16.2,20c-6.7,1.7-13.7-1-20.2-3.2
		s-14-4.1-20.2-1c-6,3-9,9.7-13.5,14.7c-8.4,9.2-21.4,12.5-33.2,8.4c-6.7-2.5-13-8.3-12.9-15.5c0.1-7.4,6.7-13,9.2-20
		c4.4-12.4-4.8-25.8-3-38.8c1-6.1,4-11.7,8.5-16c4.5-4.2,9.7-7.6,15.4-9.8c10.1-4.2,21.5-6.2,31.9-3c7.6,2.3,14,7.5,17.7,14.6
		c1.6,3.1,1.9,6.6,3.2,9.8c1.4,3.7,3.3,7.1,5.8,10.2C290,311.7,293.9,314.5,298.2,316.2z"></path><path class="st0" d="M288.5,291.5c5.5,20.6,3.5,42.7-3.1,63c-0.8,3-2.1,5.9-3.8,8.5c-1.7,2.6-4.5,4.5-7.6,5.1
		c-4.4,0.7-8.7-1.8-12.1-4.7c-10.3-8.5-17.1-20.4-24.4-31.6c-3.1-4.8-6.4-9.6-8.3-15s-2.1-11.7,0.9-16.7c2.2-3.8,6-6.4,9.9-8.5
		c5.8-3.3,11.9-6,18.3-8c5.8-1.7,11.7-2.6,17.8-2.7C283,280.7,286.8,285.2,288.5,291.5z"></path><path class="st1" d="M272.5,369c-3.4,0-7-1.6-11-5c-8.9-7.4-15.2-17.3-21.4-26.9c-1-1.6-2.1-3.3-3.2-4.9l-0.8-1.2
		c-2.9-4.4-5.9-8.9-7.6-14c-2.2-6.3-1.8-12.6,0.9-17.3c2.4-4,6.5-6.7,10.1-8.8c5.8-3.3,12-6,18.4-8c5.8-1.7,11.8-2.6,17.9-2.8
		c6.8-0.2,11.2,3.6,13.2,11.2c5.1,19.2,4.1,41.2-3.1,63.4c-0.9,3.1-2.2,6-3.9,8.7c-1.8,2.8-4.7,4.8-8,5.4
		C273.6,368.9,273.1,369,272.5,369z M276.4,281.7H276c-5.9,0.1-11.8,1-17.5,2.7c-6.3,2-12.4,4.6-18.1,7.9c-3.5,2-7.4,4.5-9.6,8.3
		c-2.5,4.3-2.8,10.1-0.8,16c1.7,4.9,4.6,9.3,7.4,13.6l0.8,1.2c1.1,1.6,2.1,3.3,3.2,4.9c6.1,9.5,12.4,19.3,21,26.5
		c4.3,3.6,8.1,5.1,11.5,4.5c2.9-0.6,5.4-2.4,7-4.8c1.7-2.6,2.9-5.3,3.7-8.3c7.1-22,8.1-43.6,3.1-62.5l0,0
		C286,285,282.1,281.6,276.4,281.7L276.4,281.7z"></path><path class="st1" d="M270.8,331.1c-0.1,0.3-0.3,0.7-0.6,0.9c-2.2,1.3-2.3-5.8-1-6.8C271.5,323.3,271.2,330.1,270.8,331.1z"></path><path class="st1" d="M279.6,329.7c-0.1,0.4-0.3,0.7-0.6,0.9c-2.1,1.3-2.3-5.8-1-6.8C280.2,321.8,280,328.6,279.6,329.7z"></path><path class="st1" d="M240.3,275.6c-3.4,3.8-6.2,8-8.5,12.5c-2.3,4.6-3.2,9.7-2.6,14.7c0.9,6.5,4.7,12.4,4.6,18.9
		c-0.1,1.7-0.5,3.5-1.9,4.5c-1.2,0.6-2.6,0.8-4,0.5c-5.4-0.6-10.5-2.7-14.8-6c-4.3-3.4-7.3-8.1-8.6-13.3c-1.4-6-0.2-12.4,2.2-18.1
		c1.2-3.3,3.1-6.3,5.5-8.9c2.7-2.5,5.9-4.6,9.3-6.1c5-2.4,9.9-3.1,15.1-4.7c1.4-0.4,3.4-1.3,4.6-0.1
		C243.2,271.4,241.6,274,240.3,275.6z"></path><path class="st2" d="M255.9,274.7c-0.7,0.9-1.5,1.7-2.4,2.4c-4,3.2-7.6,6.8-10.7,10.8c-3.1,4-5.3,8.7-6.2,13.8
		c-0.5,3.5-0.5,7,0,10.4c0.2,0.9,0.2,1.9,0,2.8c-0.2,0.9-0.8,1.7-1.7,2.1c-1.5,0.4-2.9-1-3.7-2.4c-8.3-13.8-5-31.7,7.7-41.6
		c3.3-2.6,7.3-4.2,11.6-4.7C254,267.9,258.5,270.9,255.9,274.7z"></path><path class="st1" d="M252.4,320.6c6.5,1.1,13.1,0.6,19.3-1.3c12.5-4.1,21.5-15.4,26.1-27.7c2.3-6.3,3.6-13.2,1.7-19.6
		c-0.9-3.5-3.1-6.5-6.2-8.3c-3.4-1.8-7.5-1.6-11.3-0.9c-10.5,1.8-20.4,6.4-30.1,11c-4.3,2-8.7,4.1-12.2,7.4c-4.3,4.2-7,9.7-7.9,15.6
		c-0.7,5.2-0.4,10.4,1,15.5c1.1,4.5,5.7,5.1,9.7,6.3C245.8,319.4,249.1,320.1,252.4,320.6z"></path><path class="st1" d="M267.3,347.8c-1.3-1.1-2.7-2.5-4.4-2.1c-0.9,0.2-1.6,0.8-1.9,1.6c-0.3,0.8-0.5,1.7-0.4,2.5
		c0.4,4.6,4.4,8.1,9,7.7c1.2-0.1,2.4-0.5,3.5-1.1c1.1-0.6,2-1.6,2.3-2.8c0.5-2.4-1.2-2.4-2.8-2.8
		C270.7,350.2,268.8,349.2,267.3,347.8z"></path><path class="st0" d="M100.9,272.1c3.5-0.6,7,0.3,10.3,1.6s6.2,3.2,8.2,6s2.5,6.8,0.7,9.7s-5.4,4-8.7,3.9s-6.5-1.5-9.5-2.9l13.4,6.7
		c2.5,1.1,4.8,2.6,6.8,4.5c1.9,2,3.1,4.9,2.3,7.5c-0.8,2.8-3.8,4.7-6.7,5c-3,0.1-5.9-0.6-8.5-2c-2.1-0.9-3.9-2.3-5.4-4
		c-1.5-1.8-2-4.2-1.4-6.4c0.7-2.3,2.9-3.7,5.3-3.3c-6.6-1.6-11.9-5.5-14.2-12.1C91.2,279.7,93.5,273.4,100.9,272.1z"></path><path class="st1" d="M116.7,314.8c-2.7-0.1-5.4-0.8-7.8-2.2c-2.2-1-4.1-2.4-5.7-4.2c-1.6-2-2.2-4.6-1.6-7.1
		c0.5-1.4,1.4-2.6,2.7-3.3c-5.5-1.9-9.8-6.2-11.7-11.7c-1.3-3.8-1.1-7.4,0.6-10.2c1.7-2.7,4.4-4.5,7.6-4.9c3.2-0.5,6.7,0,10.7,1.7
		s6.8,3.7,8.5,6.2c2.3,3.3,2.6,7.5,0.7,10.5c-2.1,3.4-6.2,4.4-9.4,4.2l-0.6,0l4.9,2.4c2.6,1.1,5,2.7,7.1,4.6c1.8,1.9,3.4,5,2.5,8.2
		c-0.8,2.9-3.9,5.2-7.4,5.5C117.4,314.8,117,314.8,116.7,314.8z M106.8,298.9c-1.7,0.1-3.2,1.2-3.7,2.9c-0.5,2,0,4.1,1.3,5.7
		c1.4,1.7,3.2,3,5.2,3.8c3.2,1.6,5.8,2.2,8.1,2c2.9-0.3,5.4-2.1,6.1-4.5c0.7-2.6-0.6-5.2-2.1-6.8c-1.9-1.8-4.2-3.3-6.6-4.3
		l-13.4-6.8c-0.4-0.2-0.5-0.6-0.4-1s0.6-0.5,1-0.4c3,1.3,6,2.6,9.3,2.8c3.4,0.2,6.6-1.2,8.1-3.5s1.2-6.1-0.7-8.9
		c-1.6-2.3-4.2-4.2-7.9-5.7s-7-2.1-9.9-1.6l0,0c-2.7,0.3-5.1,1.9-6.5,4.2c-1.4,2.4-1.6,5.6-0.4,8.9c2.6,7.5,8.9,10.5,13.7,11.6l0,0
		c0.4,0.1,0.6,0.5,0.5,0.9s-0.5,0.6-0.9,0.5l0,0C107.2,299,107,298.9,106.8,298.9z M100.9,272.1L100.9,272.1z"></path><path class="st0" d="M445.5,253.4c3.1,0,6.4-1.6,7.4-4.5c1.4-3.8-1.6-7.8-4.7-10.4c-8-6.8-17.9-10.8-28.3-11.5
		c-4.4-0.3-9.8,0.6-11.7,4.6c-1.7,3.5,0.3,7.9,3.4,10.2s7.1,3.1,11,3.7c-4-0.1-8.9,0.4-10.5,4.1c-1,2.3-0.1,5.1,1.6,7
		c1.8,1.8,4.1,3.1,6.5,3.8c3.9,1.4,8.4,2.3,12.2,0.7c3.8-1.5,5.9-5.6,4.9-9.6C440,252.1,442.6,253.4,445.5,253.4z"></path><path class="st1" d="M427.9,262.5c-2.7-0.1-5.4-0.6-7.9-1.5c-2.6-0.8-4.9-2.1-6.8-4c-1.7-1.9-3-5-1.7-7.8c1.1-2.4,3.4-3.6,5.9-4.1
		c-2.2-0.5-4.3-1.5-6.1-2.8c-3.2-2.4-5.6-7.1-3.6-11.1c2.4-5.1,9.5-5.2,12.4-5c10.6,0.7,20.7,4.8,28.8,11.7
		c2.1,1.8,6.7,6.4,4.9,11.2c-1.2,3.4-5,5-8.1,5l0,0c-2.1-0.1-4.1-0.5-6-1.3l-1.2-0.4c0.4,4-1.9,7.7-5.6,9.2
		C431.2,262.3,429.6,262.6,427.9,262.5z M422,246.2c-5.2,0-8.1,1.2-9.2,3.6c-0.9,2.2,0.1,4.7,1.5,6.2c1.8,1.7,3.9,2.9,6.2,3.6
		c4.9,1.7,8.6,2,11.7,0.7c3.5-1.3,5.4-5.1,4.5-8.7c-0.1-0.3,0-0.5,0.2-0.7c0.2-0.2,0.5-0.3,0.7-0.2c0.8,0.2,1.6,0.5,2.4,0.8
		c1.8,0.7,3.6,1.1,5.5,1.2c2.5,0,5.7-1.3,6.7-4c1.4-4-2.7-8.1-4.5-9.6c-7.8-6.7-17.6-10.6-27.9-11.3c-2.6-0.2-8.9-0.1-11,4.1
		c-1.5,3.2,0.4,7.2,3.2,9.3c3,2.2,7.1,3,10.6,3.6c0.4,0.1,0.7,0.4,0.6,0.8c0,0.4-0.4,0.7-0.8,0.7L422,246.2z"></path></g><g id="thank-you"><path class="st1" d="M158.9,197.6c-1.2,0-2.3-0.7-2.7-1.8c-6.1-13.5-10.1-27.8-11.9-42.5c-0.3-1.6,0.9-3.2,2.5-3.4s3.2,0.9,3.4,2.5
		c0,0.1,0,0.1,0,0.2c1.7,13.1,5.1,25.9,10.3,38.1c0.4,0.4,0.7,0.8,0.8,1.3l0.5,1.8c0.4,1.5-0.4,3.1-1.8,3.7
		C159.6,197.5,159.3,197.6,158.9,197.6z"></path><path class="st1" d="M123.7,165.4c-1.7,0-3-1.3-3-3c0-1.1,0.6-2.1,1.5-2.6c12.6-7.3,26-13.2,40-17.5c1.5-0.6,3.3,0.1,3.9,1.6
		c0.6,1.5-0.1,3.3-1.6,3.9c-0.2,0.1-0.3,0.1-0.5,0.2c-13.5,4.2-26.6,9.9-38.8,17C124.7,165.3,124.2,165.4,123.7,165.4z"></path><path class="st1" d="M183.5,189.8c-1.2,0-2.3-0.7-2.8-1.9c-6-14.9-9.6-30.7-10.7-46.7c-0.1-1.7,1.1-3.1,2.8-3.2s3.1,1.1,3.2,2.8
		c1,14.4,4.1,28.5,9.1,42c1.3,0.6,2,2.1,1.6,3.5l-0.4,1.3c-0.3,1.3-1.4,2.2-2.7,2.2L183.5,189.8z"></path><path class="st1" d="M174.9,167.8c-1.7,0-3-1.3-3-3c0-1.1,0.6-2.2,1.6-2.7c9.7-4.9,20-8.6,30.6-11c1.6-0.3,3.2,0.8,3.5,2.4
		c0.3,1.5-0.7,3-2.2,3.4c-10.1,2.3-19.9,5.8-29.1,10.5C175.8,167.7,175.4,167.8,174.9,167.8z"></path><path class="st1" d="M214.1,181.9c-1.2,0-2.2-0.7-2.7-1.8c-7-15.5-11.8-31.9-14.3-48.7c-0.2-1.6,0.9-3.2,2.5-3.4
		c1.6-0.2,3.2,0.9,3.4,2.5c2.4,16.3,7.1,32.1,13.9,47.1c0.7,1.5,0,3.3-1.5,4C214.9,181.8,214.5,181.9,214.1,181.9L214.1,181.9z"></path><path class="st1" d="M224.3,179.3c-1.3,0-2.5-0.9-2.9-2.1c-4.5-14.9-3.7-30.4-2.9-45.3c0.3-6,2.4-9.6,6.3-10.7
		c2.6-0.8,6.6-0.5,11.1,5.2c10.4,13,18.3,27.9,23.2,43.9c0.4,1.6-0.5,3.2-2.1,3.7c-1.5,0.4-3.1-0.4-3.6-1.9
		c-4.6-15.3-12.1-29.5-22.1-41.9c-0.9-1.1-3.1-3.6-4.7-3.1s-1.9,3.5-2,5.2c-0.8,14.4-1.6,29.4,2.6,43.3c0.5,1.6-0.4,3.3-2,3.7
		C224.9,179.2,224.6,179.3,224.3,179.3z"></path><path class="st1" d="M217.8,155.6c-1.7,0-3-1.3-3-3c0-1.1,0.6-2.2,1.6-2.7c9.3-4.7,18.9-8.6,28.9-11.7c1.6-0.5,3.3,0.4,3.8,2
		s-0.4,3.3-2,3.8c-9.6,2.9-18.9,6.7-27.9,11.3C218.8,155.5,218.3,155.6,217.8,155.6z"></path><path class="st1" d="M270.8,169.8c-1.4,0-2.6-1-2.9-2.4c-3-13.8-4.1-27.9-3.4-42c0-2.2,0.5-4.5,1.5-6.5c1.5-2.8,4.5-4.3,7.6-4
		c4.5,0.7,6.2,5.4,6.9,7.2c4,11.2,8.9,22,14.7,32.3c1.1,1.9,2.6,3.8,3.9,3.6c0.7-0.3,1.2-0.8,1.3-1.5c0.2-1.3,0.2-2.7-0.1-4
		c-2-13.1-5.1-26-9.5-38.6c-0.6-1.6,0.3-3.3,1.8-3.8s3.3,0.3,3.8,1.8c4.4,12.9,7.7,26.2,9.7,39.7c0.4,2.1,0.4,4.3,0,6.4
		c-0.7,2.9-3,5.1-5.9,5.8c-2.2,0.5-6.5,0.2-10.3-6.5c-6-10.6-11-21.8-15.1-33.3c-0.7-2.1-1.4-3.2-2.1-3.2c-0.7,0.1-1.2,0.5-1.5,1.1
		c-0.5,1.2-0.8,2.5-0.8,3.8c-0.7,13.6,0.3,27.1,3.2,40.4c0.4,1.6-0.7,3.2-2.3,3.6C271.3,169.8,271.1,169.8,270.8,169.8z"></path><path class="st1" d="M321.1,163.6L321.1,163.6c-1.4,0-2.7-1-2.9-2.4l-10.1-51.1c-0.3-1.6,0.7-3.2,2.4-3.6c1.6-0.3,3.2,0.7,3.6,2.4
		l9.5,48c0.8,0.7,1.1,1.8,0.9,2.8l-0.3,1.4C323.8,162.6,322.6,163.7,321.1,163.6z"></path><path class="st1" d="M349.6,158.1c-0.6,0-1.2-0.2-1.6-0.5c-9.9-6.4-20.9-11-32.5-13.4c-1.6-0.3-2.7-1.9-2.3-3.6
		c0.2-0.7,0.6-1.4,1.2-1.8c9.8-7,16.8-17.3,19.7-28.9c0.3-1.6,1.9-2.7,3.5-2.4c1.6,0.3,2.7,1.9,2.4,3.5c0,0.1,0,0.2-0.1,0.3
		c-2.7,11-8.7,21-17.1,28.6c10.1,2.8,19.7,7.1,28.5,12.8c1.4,0.9,1.8,2.8,0.9,4.2C351.6,157.6,350.7,158.1,349.6,158.1L349.6,158.1z
		"></path><path class="st1" d="M209.2,225.9c-2.6-0.1-5.2-0.9-7.4-2.3c-9-5-15.4-13.2-21-20.4c-1-1.3-0.8-3.2,0.4-4.2s3.2-0.8,4.2,0.4
		c0,0,0,0.1,0.1,0.1c5.3,6.7,11.2,14.4,19.2,18.8c2.4,1.3,4.3,1.8,5.6,1.4c1.8-0.6,3-2.9,3.8-4.9c3.6-8.6,5.6-17.8,5.8-27.1
		c0-1.7,1.4-3,3.1-2.9s3,1.4,2.9,3.1c-0.2,10.1-2.4,20-6.3,29.3c-1.3,3.1-3.4,6.9-7.5,8.2C211.1,225.7,210.2,225.9,209.2,225.9z"></path><path class="st1" d="M220.8,264.3c-1.2,0-2.3-0.8-2.8-1.9c-5.1-12.9-8.8-26.3-11.2-40c-0.3-1.6,0.8-3.2,2.5-3.5
		c1.6-0.3,3.2,0.8,3.5,2.5c2.2,13.3,5.9,26.3,10.8,38.8c0.6,1.5-0.1,3.3-1.7,3.9C221.6,264.2,221.2,264.3,220.8,264.3L220.8,264.3z"></path><path class="st1" d="M253.9,245.1c-0.8,0-1.7-0.1-2.5-0.2c-9.6-1.3-15.9-9.6-17.9-17.2c-2-7.8-0.6-15.8,1.1-23.3l0,0
		c2.2-10.2,7.1-17.5,13.8-20.7c4.1-1.9,10.9-3.2,20.3,1.6c9.1,4.9,15,14.2,15.4,24.5c0.3,9.4-3.8,19.1-11.3,26.5
		C267,242,260.2,245.1,253.9,245.1z M240.4,205.7L240.4,205.7c-1.5,6.8-2.8,14-1.1,20.6c1.4,5.5,6,11.8,12.9,12.7
		c7.4,1,13.9-4.5,16.3-6.9c6.3-6.3,9.8-14.3,9.5-22c-0.3-8.2-4.9-15.6-12.1-19.4c-5.8-3-10.8-3.5-15-1.5
		C245.9,191.5,242.2,197.4,240.4,205.7z"></path><path class="st1" d="M312.8,233.9c-4.6-0.1-8.9-2-12.1-5.2c-3.3-3.2-5.3-7.1-7-10.9c-5.5-12.4-8.8-25.7-9.6-39.3
		c-0.1-1.7,1.2-3.1,2.8-3.2c1.7-0.1,3.1,1.2,3.2,2.8c0.8,12.9,3.8,25.5,9.1,37.2c1.4,3.2,3.1,6.6,5.7,9c2.3,2.4,5.4,3.6,8.7,3.5
		c3-0.4,5.8-2.1,7.5-4.7c1.8-2.8,3.1-5.9,3.7-9.2c2.9-13.1,1.7-26.8-3.6-39.1c-0.7-1.5,0-3.3,1.5-4c1.5-0.7,3.3,0,4,1.5
		c0,0,0,0.1,0.1,0.1c5.8,13.5,7.2,28.5,4,42.8c-0.8,4.1-2.4,8-4.7,11.4c-2.7,3.9-7,6.5-11.8,7.1
		C313.7,233.9,313.2,233.9,312.8,233.9z"></path></g></svg>